<?xml version="1.0" standalone="no"?>
<!DOCTYPE svg PUBLIC "-//W3C//DTD SVG 20010904//EN"
 "http://www.w3.org/TR/2001/REC-SVG-20010904/DTD/svg10.dtd">
<svg version="1.0" xmlns="http://www.w3.org/2000/svg"
 width="1200.000000pt" height="1215.000000pt" viewBox="0 0 1200.000000 1215.000000"
 preserveAspectRatio="xMidYMid meet">

<g transform="translate(0.000000,1215.000000) scale(0.100000,-0.100000)"
fill="#000000" stroke="none">
<path d="M7642 9158 c-23 -30 -41 -79 -48 -129 -4 -30 -4 -51 0 -48 3 3 8 25
11 49 3 25 11 47 17 51 6 4 8 11 4 17 -3 5 4 21 15 36 21 26 53 34 64 16 3 -5
17 -10 31 -10 13 0 24 -4 24 -10 0 -5 7 -10 15 -10 8 0 15 -4 15 -9 0 -5 9
-11 20 -14 30 -8 14 10 -35 39 -25 14 -49 23 -55 19 -5 -3 -10 -1 -10 4 0 15
-55 14 -68 -1z"/>
<path d="M7846 9076 c3 -9 12 -16 19 -16 8 0 16 -9 20 -20 3 -11 12 -19 18
-17 7 1 11 -4 10 -10 -2 -7 4 -13 12 -13 8 0 15 -5 15 -11 0 -13 40 -66 40
-53 1 16 56 -80 65 -111 21 -78 25 -105 13 -105 -5 0 -6 -5 -3 -10 10 -16 -53
-100 -74 -100 -6 0 -10 -6 -8 -12 1 -7 -4 -12 -10 -10 -7 1 -13 -4 -13 -11 0
-10 -40 -43 -47 -39 -1 0 -16 -12 -34 -29 -17 -16 -35 -29 -40 -29 -5 0 -9 -7
-9 -16 0 -21 59 25 161 126 95 93 111 131 85 212 -28 86 -123 216 -198 269
-22 16 -27 17 -22 5z"/>
<path d="M6710 9063 c-133 -22 -296 -117 -484 -282 -149 -130 -311 -310 -607
-671 -101 -124 -224 -267 -274 -319 -193 -200 -383 -327 -595 -397 -79 -26
-97 -28 -250 -28 -91 -1 -178 3 -195 8 -27 8 -20 10 55 22 183 28 374 100 521
196 88 57 229 173 229 189 0 5 -23 -1 -52 -12 -86 -34 -243 -67 -367 -79 -126
-12 -253 -5 -476 26 -215 29 -463 6 -582 -55 -88 -44 -156 -140 -172 -242 -36
-224 167 -473 545 -667 195 -99 473 -196 694 -241 123 -25 314 -48 463 -57
l117 -7 0 -31 c0 -17 -13 -220 -30 -451 -29 -402 -29 -420 -12 -454 35 -70 53
-76 248 -79 96 -2 174 -5 174 -6 0 -2 -18 -385 -40 -851 -22 -466 -40 -874
-40 -906 l0 -59 196 0 195 0 -6 82 c-3 46 -21 430 -40 853 -19 424 -37 796
-40 828 l-5 57 166 0 c178 0 197 4 244 55 23 25 25 33 24 128 -1 92 -45 751
-60 903 l-6 61 118 38 c357 111 705 295 979 513 150 120 339 316 379 392 119
227 77 487 -108 670 -68 68 -70 72 -51 86 11 8 69 47 129 87 60 40 111 78 112
85 1 7 0 8 -3 2 -2 -5 -10 -7 -15 -4 -6 4 -8 3 -5 -3 3 -5 -10 -17 -29 -28
-19 -10 -34 -22 -34 -27 0 -5 -4 -7 -9 -4 -5 4 -11 2 -13 -2 -1 -5 -33 -28
-69 -51 -65 -40 -99 -46 -99 -15 0 8 -4 14 -10 14 -11 0 -70 84 -70 99 0 6 7
8 15 5 11 -5 13 -2 9 9 -3 9 3 26 15 38 12 13 21 29 21 36 0 7 7 13 15 13 9 0
12 6 8 17 -4 11 -3 14 5 9 7 -4 10 -2 7 7 -3 7 1 41 9 75 8 34 11 62 6 62 -4
0 -10 -22 -14 -49 -8 -60 -55 -157 -96 -196 -37 -36 -24 -51 -167 200 -89 156
-120 202 -178 260 -118 119 -258 171 -395 148z m178 -188 c61 -28 134 -99 180
-172 17 -29 30 -53 28 -53 -2 0 -30 18 -62 39 -142 94 -261 104 -409 33 -158
-76 -394 -247 -630 -457 -86 -77 -123 -103 -89 -64 230 268 381 423 505 522
207 165 350 211 477 152z m-838 -2729 l0 -383 -25 -27 c-33 -36 -95 -37 -130
-1 l-25 24 0 370 0 369 78 15 c42 8 83 15 90 16 9 1 12 -82 12 -383z m-372
-30 l-3 -354 -24 -26 c-34 -36 -98 -36 -132 0 l-24 26 0 346 0 347 60 6 c33 3
75 6 93 7 l33 2 -3 -354z"/>
<path d="M7900 8980 c0 -5 5 -10 11 -10 5 0 7 5 4 10 -3 6 -8 10 -11 10 -2 0
-4 -4 -4 -10z"/>
<path d="M7580 8938 c0 -18 -3 -56 -6 -84 -5 -42 -4 -51 9 -51 11 0 14 5 8 15
-4 8 -6 45 -3 83 2 38 2 69 -2 69 -3 0 -6 -15 -6 -32z"/>
<path d="M7564 8776 c-3 -8 -4 -27 -2 -43 3 -23 5 -20 9 15 5 43 2 53 -7 28z"/>
<path d="M2115 4983 c-234 -31 -400 -206 -421 -446 -25 -290 191 -527 480
-527 140 0 262 45 332 122 43 48 45 86 6 129 -38 42 -84 42 -146 0 -154 -106
-345 -71 -420 78 -108 213 18 455 236 455 60 0 77 -5 149 -42 98 -51 130 -53
171 -12 27 28 30 36 25 76 -6 55 -21 73 -98 114 -85 45 -213 66 -314 53z"/>
<path d="M7550 4981 c-203 -34 -356 -168 -405 -356 -43 -166 4 -352 119 -469
152 -156 407 -191 608 -84 113 60 209 184 237 308 47 203 -40 421 -210 531
-90 57 -241 88 -349 70z m190 -212 c60 -27 114 -81 142 -143 31 -70 32 -191 2
-257 -51 -109 -141 -169 -254 -168 -120 1 -200 50 -251 155 -30 60 -34 78 -33
144 2 221 198 355 394 269z"/>
<path d="M8670 4979 c-87 -15 -193 -70 -259 -137 -96 -95 -141 -207 -141 -348
0 -277 209 -483 490 -484 145 0 270 52 363 149 228 239 164 629 -127 771 -112
55 -204 69 -326 49z m212 -211 c56 -24 112 -82 141 -147 33 -72 30 -189 -6
-263 -103 -210 -400 -212 -502 -3 -52 105 -44 227 20 320 79 115 213 151 347
93z"/>
<path d="M2785 4971 c-11 -5 -29 -19 -40 -31 -19 -21 -20 -38 -23 -428 -3
-427 -1 -448 42 -477 34 -24 99 -19 128 10 33 33 38 61 38 226 l0 139 188 -2
187 -3 5 -168 5 -169 28 -24 c41 -35 99 -33 138 5 l29 29 0 411 c0 441 -1 451
-51 477 -52 27 -115 8 -137 -41 -8 -16 -12 -81 -12 -175 l0 -150 -190 0 -190
0 0 133 c0 142 -9 194 -39 221 -22 20 -78 29 -106 17z"/>
<path d="M3801 4966 c-50 -28 -50 -32 -51 -474 l0 -414 29 -29 c41 -41 101
-41 142 0 l29 29 0 419 c0 381 -2 420 -18 439 -35 43 -86 55 -131 30z"/>
<path d="M4224 4946 l-34 -34 0 -411 0 -411 29 -32 29 -33 259 -3 c169 -2 271
0 295 8 71 21 89 114 31 160 -24 19 -39 20 -234 20 l-209 0 0 351 c0 221 -4
357 -10 370 -13 24 -61 49 -96 49 -16 0 -38 -12 -60 -34z"/>
<path d="M5085 4968 c-56 -30 -55 -18 -55 -471 l0 -419 29 -29 c41 -41 101
-41 142 0 l29 29 0 411 c0 297 -3 417 -12 436 -21 46 -88 68 -133 43z"/>
<path d="M6328 4941 l-33 -29 -3 -403 c-3 -424 -1 -445 42 -474 31 -22 98 -19
125 6 35 33 41 61 41 209 l0 139 201 3 201 3 24 28 c15 18 24 41 24 62 0 21
-9 44 -24 62 l-24 28 -201 3 -201 3 0 99 0 99 231 3 231 3 24 28 c34 40 32 90
-5 128 l-29 29 -296 0 -296 0 -32 -29z"/>
<path d="M9480 4942 l-30 -30 0 -415 0 -414 26 -26 c36 -36 70 -40 268 -34
232 7 311 33 420 136 59 57 92 107 117 180 71 206 -5 438 -180 550 -100 65
-145 74 -378 79 l-213 4 -30 -30z m450 -183 c106 -48 160 -137 160 -264 0 -99
-27 -164 -91 -218 -58 -50 -120 -67 -246 -67 l-103 0 0 285 0 285 118 0 c96 0
125 -4 162 -21z"/>
<path d="M3263 3329 c-133 -66 -133 -267 0 -336 88 -45 257 13 212 73 -12 17
-16 18 -47 5 -18 -8 -52 -16 -75 -18 -37 -4 -46 -1 -72 25 -17 16 -33 42 -37
57 -11 43 13 103 49 125 40 25 61 25 113 1 48 -22 74 -13 74 25 0 55 -137 83
-217 43z"/>
<path d="M4065 3331 c-127 -57 -151 -232 -42 -315 92 -70 231 -44 286 54 33
59 27 152 -13 205 -53 69 -150 93 -231 56z m158 -91 c20 -22 27 -41 27 -71 0
-74 -39 -118 -106 -119 -97 0 -146 115 -80 189 46 51 113 51 159 1z"/>
<path d="M4853 3339 c-23 -8 -23 -11 -23 -171 0 -90 4 -169 9 -176 4 -8 19
-12 32 -10 23 3 24 7 29 108 l5 105 43 -63 c29 -42 49 -62 60 -60 9 2 35 30
57 62 l40 58 5 -97 c4 -79 8 -100 23 -109 12 -8 22 -8 35 0 15 10 17 31 19
170 2 87 0 164 -5 171 -7 11 -25 16 -54 14 -9 0 -36 -35 -63 -81 -26 -44 -50
-82 -54 -84 -4 -3 -28 31 -54 75 -52 86 -70 101 -104 88z"/>
<path d="M6558 3333 c-9 -10 -46 -87 -82 -171 -55 -125 -65 -156 -55 -168 20
-25 52 -12 72 29 l19 37 79 0 79 0 20 -41 c16 -30 26 -39 42 -37 45 7 42 27
-28 188 -37 85 -74 161 -82 168 -22 17 -46 15 -64 -5z m60 -145 c12 -28 20
-53 18 -55 -2 -2 -24 -3 -49 -1 l-44 3 20 53 c11 28 23 52 26 52 4 0 17 -23
29 -52z"/>
<path d="M7277 3337 c-16 -11 -17 -31 -15 -182 l3 -170 30 0 30 0 5 112 5 113
85 -113 c75 -99 88 -112 115 -112 l30 0 3 171 c2 147 0 173 -14 185 -11 9 -20
10 -32 2 -14 -8 -18 -30 -20 -112 -1 -55 -6 -101 -10 -101 -4 0 -38 44 -77 96
-63 86 -98 124 -115 124 -4 0 -14 -6 -23 -13z"/>
<path d="M8066 3334 c-9 -8 -16 -18 -16 -20 0 -11 26 -52 76 -121 50 -66 54
-76 54 -127 0 -70 7 -86 36 -86 31 0 44 27 44 93 0 52 4 60 60 136 62 84 71
110 45 131 -23 19 -40 6 -92 -69 -26 -39 -51 -70 -54 -71 -4 0 -21 22 -38 49
-37 57 -76 101 -90 101 -5 0 -17 -7 -25 -16z"/>
<path d="M5704 3327 c-2 -7 -3 -87 -2 -177 l3 -165 24 -3 c32 -5 51 21 51 70
l0 38 45 0 c92 0 155 50 155 122 0 51 -23 94 -60 113 -38 20 -208 21 -216 2z
m184 -69 c17 -17 15 -64 -4 -82 -9 -10 -33 -16 -60 -16 l-44 0 0 55 0 55 48 0
c26 0 53 -5 60 -12z"/>
</g>
</svg>
